<svg width="200" height="40" viewBox="0 0 200 40" fill="none" xmlns="http://www.w3.org/2000/svg">
<path d="M16.6075 20.7081C16.6075 22.6921 16.2492 24.4068 15.5328 25.852C14.8163 27.2972 13.8334 28.4117 12.5842 29.1955C11.335 29.9793 9.90814 30.3713 8.30374 30.3713C6.69933 30.3713 5.2725 29.9793 4.02327 29.1955C2.77404 28.4117 1.79118 27.2972 1.07471 25.852C0.358236 24.4068 0 22.6921 0 20.7081C0 18.724 0.358236 17.0093 1.07471 15.5641C1.79118 14.119 2.77404 13.0044 4.02327 12.2206C5.2725 11.4368 6.69933 11.0449 8.30374 11.0449C9.90814 11.0449 11.335 11.4368 12.5842 12.2206C13.8334 13.0044 14.8163 14.119 15.5328 15.5641C16.2492 17.0093 16.6075 18.724 16.6075 20.7081ZM14.4029 20.7081C14.4029 19.0792 14.1304 17.7044 13.5854 16.5837C13.0465 15.4631 12.3148 14.615 11.3901 14.0393C10.4715 13.4637 9.44274 13.1759 8.30374 13.1759C7.16473 13.1759 6.13288 13.4637 5.20821 14.0393C4.28965 14.615 3.55787 15.4631 3.01286 16.5837C2.47397 17.7044 2.20453 19.0792 2.20453 20.7081C2.20453 22.337 2.47397 23.7117 3.01286 24.8324C3.55787 25.953 4.28965 26.8011 5.20821 27.3768C6.13288 27.9524 7.16473 28.2402 8.30374 28.2402C9.44274 28.2402 10.4715 27.9524 11.3901 27.3768C12.3148 26.8011 13.0465 25.953 13.5854 24.8324C14.1304 23.7117 14.4029 22.337 14.4029 20.7081Z" fill="black"/>
<path d="M22.3117 21.6266V30.1141H20.1439V16.0051H22.2382V18.2096H22.4219C22.7526 17.4931 23.2547 16.9175 23.9284 16.4827C24.602 16.0418 25.4715 15.8213 26.537 15.8213C27.4923 15.8213 28.3282 16.0173 29.0447 16.4092C29.7612 16.795 30.3184 17.3829 30.7165 18.1728C31.1145 18.9567 31.3135 19.9487 31.3135 21.149V30.1141H29.1457V21.2959C29.1457 20.1875 28.8579 19.3241 28.2823 18.7056C27.7067 18.081 26.9167 17.7687 25.9124 17.7687C25.2205 17.7687 24.602 17.9187 24.0569 18.2188C23.5181 18.5188 23.0925 18.9567 22.7802 19.5323C22.4678 20.1079 22.3117 20.806 22.3117 21.6266Z" fill="black"/>
<path d="M41.4107 16.0051V17.8422H34.099V16.0051H41.4107ZM36.2301 12.6248H38.3979V26.0724C38.3979 26.6848 38.4867 27.1441 38.6643 27.4502C38.848 27.7503 39.0807 27.9524 39.3624 28.0565C39.6502 28.1545 39.9533 28.2035 40.2717 28.2035C40.5106 28.2035 40.7065 28.1912 40.8596 28.1667C41.0127 28.1361 41.1352 28.1116 41.227 28.0932L41.6679 30.0406C41.521 30.0957 41.3158 30.1508 41.0525 30.2059C40.7892 30.2672 40.4554 30.2978 40.0513 30.2978C39.4389 30.2978 38.8388 30.1661 38.2509 29.9028C37.6692 29.6395 37.1854 29.2384 36.7996 28.6995C36.4199 28.1606 36.2301 27.4809 36.2301 26.6603V12.6248Z" fill="black"/>
<path d="M48.8235 30.4447C47.9294 30.4447 47.118 30.2763 46.3893 29.9395C45.6606 29.5966 45.0819 29.1036 44.6532 28.4607C44.2246 27.8115 44.0103 27.0277 44.0103 26.1092C44.0103 25.3008 44.1695 24.6456 44.4879 24.1435C44.8063 23.6352 45.2319 23.2371 45.7647 22.9493C46.2975 22.6615 46.8853 22.4472 47.5283 22.3063C48.1774 22.1594 48.8296 22.043 49.4848 21.9573C50.3422 21.8471 51.0372 21.7644 51.57 21.7093C52.1088 21.648 52.5008 21.547 52.7457 21.4062C52.9968 21.2653 53.1223 21.0204 53.1223 20.6713V20.5978C53.1223 19.6915 52.8743 18.9873 52.3783 18.4852C51.8884 17.983 51.1444 17.7319 50.1462 17.7319C49.1113 17.7319 48.2999 17.9585 47.712 18.4117C47.1242 18.8648 46.7108 19.3486 46.472 19.863L44.4144 19.1281C44.7818 18.2708 45.2717 17.6033 45.8841 17.1257C46.5026 16.6419 47.1762 16.3051 47.9049 16.1153C48.6398 15.9193 49.3624 15.8213 50.0727 15.8213C50.5259 15.8213 51.0464 15.8765 51.6343 15.9867C52.2283 16.0908 52.8008 16.3082 53.352 16.6389C53.9092 16.9695 54.3716 17.4686 54.739 18.1361C55.1064 18.8036 55.2901 19.6976 55.2901 20.8183V30.1141H53.1223V28.2035H53.0121C52.8651 28.5096 52.6202 28.8373 52.2772 29.1863C51.9343 29.5354 51.4781 29.8324 50.9086 30.0773C50.3391 30.3223 49.6441 30.4447 48.8235 30.4447ZM49.1542 28.4974C50.0115 28.4974 50.7341 28.329 51.3219 27.9922C51.916 27.6554 52.363 27.2206 52.663 26.6878C52.9692 26.1551 53.1223 25.5948 53.1223 25.0069V23.0228C53.0305 23.133 52.8284 23.2341 52.5161 23.3259C52.2099 23.4117 51.8547 23.4882 51.4506 23.5556C51.0525 23.6168 50.6637 23.6719 50.284 23.7209C49.9104 23.7638 49.6073 23.8005 49.3746 23.8311C48.8112 23.9046 48.2846 24.024 47.7947 24.1894C47.3109 24.3486 46.919 24.5905 46.6189 24.915C46.325 25.2335 46.178 25.6683 46.178 26.2194C46.178 26.9726 46.4567 27.5421 47.0139 27.9279C47.5773 28.3076 48.2907 28.4974 49.1542 28.4974Z" fill="black"/>
<path d="M59.2468 30.1141V16.0051H61.3411V18.1361H61.4881C61.7453 17.438 62.2107 16.8716 62.8843 16.4368C63.5579 16.002 64.3172 15.7846 65.1623 15.7846C65.3215 15.7846 65.5205 15.7877 65.7593 15.7938C65.9982 15.7999 66.1788 15.8091 66.3013 15.8213V18.0259C66.2278 18.0075 66.0594 17.9799 65.7961 17.9432C65.5389 17.9003 65.2664 17.8789 64.9786 17.8789C64.2927 17.8789 63.6803 18.0228 63.1415 18.3106C62.6087 18.5923 62.1862 18.9842 61.8739 19.4864C61.5677 19.9824 61.4146 20.5488 61.4146 21.1857V30.1141H59.2468Z" fill="black"/>
<path d="M68.8709 30.1141V16.0051H71.0387V30.1141H68.8709ZM69.9732 13.6536C69.5507 13.6536 69.1863 13.5096 68.8801 13.2218C68.5801 12.934 68.43 12.588 68.43 12.1839C68.43 11.7797 68.5801 11.4337 68.8801 11.1459C69.1863 10.8581 69.5507 10.7142 69.9732 10.7142C70.3957 10.7142 70.757 10.8581 71.0571 11.1459C71.3633 11.4337 71.5164 11.7797 71.5164 12.1839C71.5164 12.588 71.3633 12.934 71.0571 13.2218C70.757 13.5096 70.3957 13.6536 69.9732 13.6536Z" fill="black"/>
<path d="M80.741 30.408C79.4672 30.408 78.3497 30.1049 77.3882 29.4986C76.4329 28.8924 75.6859 28.0442 75.147 26.9542C74.6142 25.8642 74.3478 24.5905 74.3478 23.133C74.3478 21.6634 74.6142 20.3804 75.147 19.2843C75.6859 18.1882 76.4329 17.337 77.3882 16.7307C78.3497 16.1245 79.4672 15.8213 80.741 15.8213C82.0147 15.8213 83.1292 16.1245 84.0845 16.7307C85.0459 17.337 85.793 18.1882 86.3258 19.2843C86.8647 20.3804 87.1341 21.6634 87.1341 23.133C87.1341 24.5905 86.8647 25.8642 86.3258 26.9542C85.793 28.0442 85.0459 28.8924 84.0845 29.4986C83.1292 30.1049 82.0147 30.408 80.741 30.408ZM80.741 28.4607C81.7085 28.4607 82.5046 28.2126 83.1292 27.7166C83.7538 27.2206 84.2162 26.5684 84.5162 25.7601C84.8163 24.9518 84.9663 24.0761 84.9663 23.133C84.9663 22.19 84.8163 21.3112 84.5162 20.4968C84.2162 19.6823 83.7538 19.024 83.1292 18.5219C82.5046 18.0198 81.7085 17.7687 80.741 17.7687C79.7734 17.7687 78.9773 18.0198 78.3527 18.5219C77.7281 19.024 77.2658 19.6823 76.9657 20.4968C76.6656 21.3112 76.5156 22.19 76.5156 23.133C76.5156 24.0761 76.6656 24.9518 76.9657 25.7601C77.2658 26.5684 77.7281 27.2206 78.3527 27.7166C78.9773 28.2126 79.7734 28.4607 80.741 28.4607Z" fill="black"/>
<path d="M93.319 30.1141V11.3021H100.741C102.168 11.3021 103.383 11.5746 104.388 12.1196C105.392 12.6585 106.157 13.4086 106.684 14.37C107.217 15.3253 107.483 16.4276 107.483 17.6768C107.483 18.9261 107.214 20.0283 106.675 20.9836C106.136 21.9389 105.355 22.6829 104.333 23.2157C103.316 23.7485 102.085 24.0149 100.64 24.0149H95.9094V20.8275H99.9969C100.762 20.8275 101.393 20.6958 101.889 20.4325C102.391 20.163 102.765 19.7926 103.01 19.321C103.261 18.8434 103.386 18.2953 103.386 17.6768C103.386 17.0522 103.261 16.5072 103.01 16.0418C102.765 15.5703 102.391 15.2059 101.889 14.9487C101.387 14.6854 100.75 14.5537 99.9786 14.5537H97.2964V30.1141H93.319Z" fill="url(#paint0_linear_25_295)"/>
<path d="M119.041 24.1067V16.0051H122.954V30.1141H119.197V27.5513H119.05C118.732 28.378 118.202 29.0424 117.461 29.5446C116.726 30.0467 115.829 30.2978 114.77 30.2978C113.827 30.2978 112.997 30.0834 112.28 29.6548C111.564 29.2261 111.004 28.6168 110.599 27.8269C110.201 27.0369 109.999 26.0908 109.993 24.9885V16.0051H113.906V24.2904C113.912 25.1232 114.136 25.7815 114.577 26.2653C115.018 26.7491 115.609 26.991 116.35 26.991C116.821 26.991 117.262 26.8838 117.672 26.6695C118.083 26.449 118.413 26.1245 118.664 25.6958C118.921 25.2672 119.047 24.7374 119.041 24.1067Z" fill="url(#paint1_linear_25_295)"/>
<path d="M129.997 11.3021V30.1141H126.084V11.3021H129.997Z" fill="url(#paint2_linear_25_295)"/>
<path d="M144.871 20.0283L141.288 20.2488C141.227 19.9426 141.095 19.667 140.893 19.4221C140.691 19.171 140.425 18.972 140.094 18.825C139.77 18.6719 139.381 18.5954 138.928 18.5954C138.321 18.5954 137.81 18.724 137.394 18.9812C136.977 19.2322 136.769 19.569 136.769 19.9916C136.769 20.3284 136.904 20.6131 137.173 20.8458C137.443 21.0785 137.905 21.2653 138.56 21.4062L141.114 21.9205C142.485 22.2022 143.508 22.6554 144.182 23.28C144.855 23.9046 145.192 24.7252 145.192 25.7417C145.192 26.6664 144.92 27.4778 144.375 28.1759C143.836 28.874 143.095 29.419 142.152 29.8109C141.215 30.1967 140.134 30.3896 138.909 30.3896C137.041 30.3896 135.553 30.0008 134.445 29.2231C133.343 28.4392 132.697 27.3737 132.507 26.0265L136.356 25.8244C136.472 26.3939 136.754 26.8287 137.201 27.1288C137.648 27.4227 138.22 27.5697 138.918 27.5697C139.604 27.5697 140.155 27.438 140.572 27.1747C140.994 26.9052 141.209 26.5593 141.215 26.1367C141.209 25.7815 141.059 25.4907 140.765 25.2641C140.471 25.0314 140.018 24.8538 139.405 24.7313L136.962 24.2445C135.584 23.9689 134.558 23.4913 133.885 22.8115C133.217 22.1318 132.883 21.2653 132.883 20.212C132.883 19.3057 133.128 18.525 133.618 17.8697C134.114 17.2145 134.809 16.7093 135.703 16.3541C136.604 15.9989 137.657 15.8213 138.863 15.8213C140.645 15.8213 142.048 16.198 143.07 16.9512C144.099 17.7044 144.699 18.7301 144.871 20.0283Z" fill="url(#paint3_linear_25_295)"/>
<path d="M154.086 30.3896C152.635 30.3896 151.385 30.0957 150.338 29.5078C149.297 28.9138 148.495 28.0749 147.932 26.991C147.368 25.901 147.087 24.6119 147.087 23.1239C147.087 21.6725 147.368 20.3988 147.932 19.3027C148.495 18.2065 149.288 17.3523 150.311 16.7399C151.34 16.1275 152.546 15.8213 153.93 15.8213C154.861 15.8213 155.727 15.9714 156.529 16.2714C157.338 16.5654 158.042 17.0093 158.642 17.6033C159.248 18.1973 159.72 18.9444 160.057 19.8446C160.393 20.7387 160.562 21.7858 160.562 22.9861V24.0608H148.648V21.6358H156.878C156.878 21.0724 156.756 20.5733 156.511 20.1386C156.266 19.7038 155.926 19.3639 155.491 19.119C155.063 18.8679 154.564 18.7423 153.994 18.7423C153.4 18.7423 152.874 18.8801 152.414 19.1557C151.961 19.4251 151.606 19.7895 151.349 20.2488C151.092 20.7019 150.96 21.2071 150.954 21.7644V24.07C150.954 24.7681 151.082 25.3713 151.34 25.8795C151.603 26.3878 151.973 26.7797 152.451 27.0553C152.929 27.3308 153.495 27.4686 154.15 27.4686C154.585 27.4686 154.983 27.4074 155.344 27.2849C155.706 27.1624 156.015 26.9787 156.272 26.7338C156.529 26.4888 156.725 26.1888 156.86 25.8336L160.479 26.0724C160.295 26.942 159.919 27.7013 159.349 28.3504C158.786 28.9934 158.057 29.4956 157.163 29.8569C156.275 30.212 155.25 30.3896 154.086 30.3896Z" fill="url(#paint4_linear_25_295)"/>
<path d="M181.353 0L177.889 10.872L184.483 39.2789L190.111 25.6233H200V20.2345H186.503L185.788 21.9685L181.353 0Z" fill="url(#paint5_linear_25_295)"/>
<path d="M178.547 25.6233L176.289 15.8946L174.906 20.2345H167.128V25.6233H178.547Z" fill="url(#paint6_linear_25_295)"/>
<defs>
<linearGradient id="paint0_linear_25_295" x1="192.308" y1="19.6395" x2="-8.49701e-08" y2="19.6395" gradientUnits="userSpaceOnUse">
<stop stop-color="#FF0000"/>
<stop offset="1" stop-color="#990000"/>
</linearGradient>
<linearGradient id="paint1_linear_25_295" x1="192.308" y1="19.6395" x2="-8.49701e-08" y2="19.6395" gradientUnits="userSpaceOnUse">
<stop stop-color="#FF0000"/>
<stop offset="1" stop-color="#990000"/>
</linearGradient>
<linearGradient id="paint2_linear_25_295" x1="192.308" y1="19.6395" x2="-8.49701e-08" y2="19.6395" gradientUnits="userSpaceOnUse">
<stop stop-color="#FF0000"/>
<stop offset="1" stop-color="#990000"/>
</linearGradient>
<linearGradient id="paint3_linear_25_295" x1="192.308" y1="19.6395" x2="-8.49701e-08" y2="19.6395" gradientUnits="userSpaceOnUse">
<stop stop-color="#FF0000"/>
<stop offset="1" stop-color="#990000"/>
</linearGradient>
<linearGradient id="paint4_linear_25_295" x1="192.308" y1="19.6395" x2="-8.49701e-08" y2="19.6395" gradientUnits="userSpaceOnUse">
<stop stop-color="#FF0000"/>
<stop offset="1" stop-color="#990000"/>
</linearGradient>
<linearGradient id="paint5_linear_25_295" x1="167.128" y1="22.8627" x2="200" y2="22.8627" gradientUnits="userSpaceOnUse">
<stop stop-color="#FF0000"/>
<stop offset="1" stop-color="#520000"/>
</linearGradient>
<linearGradient id="paint6_linear_25_295" x1="167.128" y1="22.8627" x2="200" y2="22.8627" gradientUnits="userSpaceOnUse">
<stop stop-color="#FF0000"/>
<stop offset="1" stop-color="#520000"/>
</linearGradient>
</defs>
</svg>
