<svg width="303" height="58" viewBox="0 0 303 58" fill="none" xmlns="http://www.w3.org/2000/svg">
<path d="M33.6818 28.5455C33.6818 32.2273 33.017 35.4091 31.6875 38.0909C30.358 40.7727 28.5341 42.8409 26.2159 44.2955C23.8977 45.75 21.25 46.4773 18.2727 46.4773C15.2955 46.4773 12.6477 45.75 10.3295 44.2955C8.01136 42.8409 6.1875 40.7727 4.85795 38.0909C3.52841 35.4091 2.86364 32.2273 2.86364 28.5455C2.86364 24.8636 3.52841 21.6818 4.85795 19C6.1875 16.3182 8.01136 14.25 10.3295 12.7955C12.6477 11.3409 15.2955 10.6136 18.2727 10.6136C21.25 10.6136 23.8977 11.3409 26.2159 12.7955C28.5341 14.25 30.358 16.3182 31.6875 19C33.017 21.6818 33.6818 24.8636 33.6818 28.5455ZM29.5909 28.5455C29.5909 25.5227 29.0852 22.9716 28.0739 20.892C27.0739 18.8125 25.7159 17.2386 24 16.1705C22.2955 15.1023 20.3864 14.5682 18.2727 14.5682C16.1591 14.5682 14.2443 15.1023 12.5284 16.1705C10.8239 17.2386 9.46591 18.8125 8.45455 20.892C7.45455 22.9716 6.95455 25.5227 6.95455 28.5455C6.95455 31.5682 7.45455 34.1193 8.45455 36.1989C9.46591 38.2784 10.8239 39.8523 12.5284 40.9205C14.2443 41.9886 16.1591 42.5227 18.2727 42.5227C20.3864 42.5227 22.2955 41.9886 24 40.9205C25.7159 39.8523 27.0739 38.2784 28.0739 36.1989C29.0852 34.1193 29.5909 31.5682 29.5909 28.5455ZM44.267 30.25V46H40.2443V19.8182H44.1307V23.9091H44.4716C45.0852 22.5795 46.017 21.5114 47.267 20.7045C48.517 19.8864 50.1307 19.4773 52.108 19.4773C53.8807 19.4773 55.4318 19.8409 56.7614 20.5682C58.0909 21.2841 59.125 22.375 59.8636 23.8409C60.6023 25.2955 60.9716 27.1364 60.9716 29.3636V46H56.9489V29.6364C56.9489 27.5795 56.4148 25.9773 55.3466 24.8295C54.2784 23.6705 52.8125 23.0909 50.9489 23.0909C49.6648 23.0909 48.517 23.3693 47.5057 23.9261C46.5057 24.483 45.7159 25.2955 45.1364 26.3636C44.5568 27.4318 44.267 28.7273 44.267 30.25ZM79.7088 19.8182V23.2273H66.1406V19.8182H79.7088ZM70.0952 13.5455H74.1179V38.5C74.1179 39.6364 74.2827 40.4886 74.6122 41.0568C74.9531 41.6136 75.3849 41.9886 75.9077 42.1818C76.4418 42.3636 77.0043 42.4545 77.5952 42.4545C78.0384 42.4545 78.402 42.4318 78.6861 42.3864C78.9702 42.3295 79.1974 42.2841 79.3679 42.25L80.1861 45.8636C79.9134 45.9659 79.5327 46.0682 79.044 46.1705C78.5554 46.2841 77.9361 46.3409 77.1861 46.3409C76.0497 46.3409 74.9361 46.0966 73.8452 45.608C72.7656 45.1193 71.8679 44.375 71.152 43.375C70.4474 42.375 70.0952 41.1136 70.0952 39.5909V13.5455ZM93.4645 46.6136C91.8054 46.6136 90.2997 46.3011 88.9474 45.6761C87.5952 45.0398 86.5213 44.125 85.7259 42.9318C84.9304 41.7273 84.5327 40.2727 84.5327 38.5682C84.5327 37.0682 84.8281 35.8523 85.419 34.9205C86.0099 33.9773 86.7997 33.2386 87.7884 32.7045C88.777 32.1705 89.8679 31.7727 91.0611 31.5114C92.2656 31.2386 93.4759 31.0227 94.6918 30.8636C96.2827 30.6591 97.5724 30.5057 98.5611 30.4034C99.5611 30.2898 100.288 30.1023 100.743 29.8409C101.209 29.5795 101.442 29.125 101.442 28.4773V28.3409C101.442 26.6591 100.982 25.3523 100.061 24.4205C99.152 23.4886 97.7713 23.0227 95.919 23.0227C93.9986 23.0227 92.4929 23.4432 91.402 24.2841C90.3111 25.125 89.544 26.0227 89.1009 26.9773L85.2827 25.6136C85.9645 24.0227 86.8736 22.7841 88.0099 21.8977C89.1577 21 90.4077 20.375 91.7599 20.0227C93.1236 19.6591 94.4645 19.4773 95.7827 19.4773C96.6236 19.4773 97.5895 19.5795 98.6804 19.7841C99.7827 19.9773 100.845 20.3807 101.868 20.9943C102.902 21.608 103.76 22.5341 104.442 23.7727C105.124 25.0114 105.464 26.6705 105.464 28.75V46H101.442V42.4545H101.237C100.964 43.0227 100.51 43.6307 99.8736 44.2784C99.2372 44.9261 98.3906 45.4773 97.3338 45.9318C96.277 46.3864 94.9872 46.6136 93.4645 46.6136ZM94.0781 43C95.669 43 97.0099 42.6875 98.1009 42.0625C99.2031 41.4375 100.033 40.6307 100.589 39.642C101.158 38.6534 101.442 37.6136 101.442 36.5227V32.8409C101.271 33.0455 100.896 33.233 100.317 33.4034C99.7486 33.5625 99.0895 33.7045 98.3395 33.8295C97.6009 33.9432 96.8793 34.0455 96.1747 34.1364C95.4815 34.2159 94.919 34.2841 94.4872 34.3409C93.4418 34.4773 92.4645 34.6989 91.5554 35.0057C90.6577 35.3011 89.9304 35.75 89.3736 36.3523C88.8281 36.9432 88.5554 37.75 88.5554 38.7727C88.5554 40.1705 89.0724 41.2273 90.1065 41.9432C91.152 42.6477 92.4759 43 94.0781 43ZM112.807 46V19.8182H116.693V23.7727H116.966C117.443 22.4773 118.307 21.4261 119.557 20.6193C120.807 19.8125 122.216 19.4091 123.784 19.4091C124.08 19.4091 124.449 19.4148 124.892 19.4261C125.335 19.4375 125.67 19.4545 125.898 19.4773V23.5682C125.761 23.5341 125.449 23.483 124.96 23.4148C124.483 23.3352 123.977 23.2955 123.443 23.2955C122.17 23.2955 121.034 23.5625 120.034 24.0966C119.045 24.6193 118.261 25.3466 117.682 26.2784C117.114 27.1989 116.83 28.25 116.83 29.4318V46H112.807ZM130.666 46V19.8182H134.689V46H130.666ZM132.712 15.4545C131.928 15.4545 131.251 15.1875 130.683 14.6534C130.126 14.1193 129.848 13.4773 129.848 12.7273C129.848 11.9773 130.126 11.3352 130.683 10.8011C131.251 10.267 131.928 10 132.712 10C133.496 10 134.166 10.267 134.723 10.8011C135.291 11.3352 135.575 11.9773 135.575 12.7273C135.575 13.4773 135.291 14.1193 134.723 14.6534C134.166 15.1875 133.496 15.4545 132.712 15.4545ZM152.693 46.5455C150.33 46.5455 148.256 45.983 146.472 44.858C144.699 43.733 143.312 42.1591 142.312 40.1364C141.324 38.1136 140.83 35.75 140.83 33.0455C140.83 30.3182 141.324 27.9375 142.312 25.9034C143.312 23.8693 144.699 22.2898 146.472 21.1648C148.256 20.0398 150.33 19.4773 152.693 19.4773C155.057 19.4773 157.125 20.0398 158.898 21.1648C160.682 22.2898 162.068 23.8693 163.057 25.9034C164.057 27.9375 164.557 30.3182 164.557 33.0455C164.557 35.75 164.057 38.1136 163.057 40.1364C162.068 42.1591 160.682 43.733 158.898 44.858C157.125 45.983 155.057 46.5455 152.693 46.5455ZM152.693 42.9318C154.489 42.9318 155.966 42.4716 157.125 41.5511C158.284 40.6307 159.142 39.4205 159.699 37.9205C160.256 36.4205 160.534 34.7955 160.534 33.0455C160.534 31.2955 160.256 29.6648 159.699 28.1534C159.142 26.642 158.284 25.4205 157.125 24.4886C155.966 23.5568 154.489 23.0909 152.693 23.0909C150.898 23.0909 149.42 23.5568 148.261 24.4886C147.102 25.4205 146.244 26.642 145.688 28.1534C145.131 29.6648 144.852 31.2955 144.852 33.0455C144.852 34.7955 145.131 36.4205 145.688 37.9205C146.244 39.4205 147.102 40.6307 148.261 41.5511C149.42 42.4716 150.898 42.9318 152.693 42.9318Z" fill="black"/>
<path d="M176.034 46V11.0909H189.807C192.455 11.0909 194.71 11.5966 196.574 12.608C198.438 13.608 199.858 15 200.835 16.7841C201.824 18.5568 202.318 20.6023 202.318 22.9205C202.318 25.2386 201.818 27.2841 200.818 29.0568C199.818 30.8295 198.369 32.2102 196.472 33.1989C194.585 34.1875 192.301 34.6818 189.619 34.6818H180.841V28.767H188.426C189.847 28.767 191.017 28.5227 191.938 28.0341C192.869 27.5341 193.563 26.8466 194.017 25.9716C194.483 25.0852 194.716 24.0682 194.716 22.9205C194.716 21.7614 194.483 20.75 194.017 19.8864C193.563 19.0114 192.869 18.3352 191.938 17.858C191.006 17.3693 189.824 17.125 188.392 17.125H183.415V46H176.034ZM223.766 34.8523V19.8182H231.027V46H224.055V41.2443H223.783C223.192 42.7784 222.209 44.0114 220.834 44.9432C219.47 45.875 217.805 46.3409 215.839 46.3409C214.089 46.3409 212.55 45.9432 211.22 45.1477C209.891 44.3523 208.851 43.2216 208.101 41.7557C207.362 40.2898 206.987 38.5341 206.976 36.4886V19.8182H214.237V35.1932C214.249 36.7386 214.663 37.9602 215.482 38.858C216.3 39.7557 217.396 40.2045 218.771 40.2045C219.646 40.2045 220.464 40.0057 221.226 39.608C221.987 39.1989 222.601 38.5966 223.067 37.8011C223.544 37.0057 223.777 36.0227 223.766 34.8523ZM244.097 11.0909V46H236.835V11.0909H244.097ZM271.697 27.2841L265.05 27.6932C264.936 27.125 264.692 26.6136 264.317 26.1591C263.942 25.6932 263.447 25.3239 262.834 25.0511C262.232 24.767 261.51 24.625 260.669 24.625C259.544 24.625 258.595 24.8636 257.822 25.3409C257.05 25.8068 256.663 26.4318 256.663 27.2159C256.663 27.8409 256.913 28.3693 257.413 28.8011C257.913 29.233 258.771 29.5795 259.987 29.8409L264.726 30.7955C267.271 31.3182 269.169 32.1591 270.419 33.3182C271.669 34.4773 272.294 36 272.294 37.8864C272.294 39.6023 271.788 41.108 270.777 42.4034C269.777 43.6989 268.402 44.7102 266.652 45.4375C264.913 46.1534 262.908 46.5114 260.635 46.5114C257.169 46.5114 254.408 45.7898 252.351 44.3466C250.305 42.892 249.107 40.9148 248.754 38.4148L255.896 38.0398C256.112 39.0966 256.635 39.9034 257.464 40.4602C258.294 41.0057 259.357 41.2784 260.652 41.2784C261.925 41.2784 262.947 41.0341 263.72 40.5455C264.504 40.0455 264.902 39.4034 264.913 38.6193C264.902 37.9602 264.624 37.4205 264.078 37C263.533 36.5682 262.692 36.2386 261.555 36.0114L257.021 35.108C254.464 34.5966 252.561 33.7102 251.311 32.4489C250.072 31.1875 249.453 29.5795 249.453 27.625C249.453 25.9432 249.908 24.4943 250.817 23.2784C251.737 22.0625 253.027 21.125 254.686 20.4659C256.357 19.8068 258.311 19.4773 260.55 19.4773C263.857 19.4773 266.459 20.1761 268.357 21.5739C270.266 22.9716 271.379 24.875 271.697 27.2841ZM288.798 46.5114C286.105 46.5114 283.787 45.9659 281.844 44.875C279.912 43.7727 278.423 42.2159 277.378 40.2045C276.332 38.1818 275.81 35.7898 275.81 33.0284C275.81 30.3352 276.332 27.9716 277.378 25.9375C278.423 23.9034 279.895 22.3182 281.793 21.1818C283.702 20.0455 285.94 19.4773 288.509 19.4773C290.236 19.4773 291.844 19.7557 293.332 20.3125C294.832 20.858 296.139 21.6818 297.253 22.7841C298.378 23.8864 299.253 25.2727 299.878 26.9432C300.503 28.6023 300.815 30.5455 300.815 32.7727V34.767H278.707V30.267H293.98C293.98 29.2216 293.753 28.2955 293.298 27.4886C292.844 26.6818 292.213 26.0511 291.406 25.5966C290.611 25.1307 289.685 24.8977 288.628 24.8977C287.526 24.8977 286.548 25.1534 285.696 25.6648C284.855 26.1648 284.196 26.8409 283.719 27.6932C283.241 28.5341 282.997 29.4716 282.986 30.5057V34.7841C282.986 36.0795 283.224 37.1989 283.702 38.142C284.19 39.0852 284.878 39.8125 285.764 40.3239C286.651 40.8352 287.702 41.0909 288.918 41.0909C289.724 41.0909 290.463 40.9773 291.134 40.75C291.804 40.5227 292.378 40.1818 292.855 39.7273C293.332 39.2727 293.696 38.7159 293.946 38.0568L300.662 38.5C300.321 40.1136 299.622 41.5227 298.565 42.7273C297.52 43.9205 296.168 44.8523 294.509 45.5227C292.861 46.1818 290.957 46.5114 288.798 46.5114Z" fill="url(#paint0_linear_1_12)"/>
<defs>
<linearGradient id="paint0_linear_1_12" x1="298" y1="29" x2="173" y2="29" gradientUnits="userSpaceOnUse">
<stop stop-color="#FF0000"/>
<stop offset="1" stop-color="#990000"/>
</linearGradient>
</defs>
</svg>
